<?xml version="1.0" encoding="UTF-8"?>
<!DOCTYPE svg PUBLIC "-//W3C//DTD SVG 1.1//EN" "http://www.w3.org/Graphics/SVG/1.1/DTD/svg11.dtd">
<!-- Creator: CorelDRAW X8 -->
<svg xmlns="http://www.w3.org/2000/svg" xml:space="preserve" width="1.52689in" height="1.52688in" version="1.1" style="shape-rendering:geometricPrecision; text-rendering:geometricPrecision; image-rendering:optimizeQuality; fill-rule:evenodd; clip-rule:evenodd"
viewBox="0 0 239 239"
 xmlns:xlink="http://www.w3.org/1999/xlink">
 <defs>
  <style type="text/css">
   <![CDATA[
    .fil1 {fill:#2B9906}
    .fil0 {fill:#3CE304}
   ]]>
  </style>
 </defs>
 <g id="Layer_x0020_1">
  <metadata id="CorelCorpID_0Corel-Layer"/>
  <path class="fil0" d="M3 0l111 0c-22,5 -42,15 -58,31 -26,24 -38,54 -38,91 0,34 12,63 37,86 16,16 35,26 55,31l-107 0c-2,0 -3,-2 -3,-3l0 -233c0,-2 1,-3 3,-3z"/>
  <path class="fil1" d="M181 0l55 0c1,0 3,1 3,3l0 233c0,1 -2,3 -3,3l-52 0c1,0 1,0 2,0l9 -75c-13,6 -26,9 -37,9 -18,0 -32,-4 -42,-13 -11,-9 -17,-22 -17,-39 0,-18 6,-32 18,-42 11,-8 25,-12 44,-12 11,0 22,2 32,8l-12 -75z"/>
 </g>
</svg>
